<?xml version="1.0" standalone="no"?>
<!DOCTYPE svg PUBLIC "-//W3C//DTD SVG 20010904//EN"
 "http://www.w3.org/TR/2001/REC-SVG-20010904/DTD/svg10.dtd">
<svg version="1.0" xmlns="http://www.w3.org/2000/svg"
 width="240.000000pt" height="240.000000pt" viewBox="0 0 240.000000 240.000000"
 preserveAspectRatio="xMidYMid meet">

<g transform="translate(0.000000,240.000000) scale(0.100000,-0.100000)"
fill="#000000" stroke="none">
<path d="M1105 2183 c-211 -76 -272 -336 -115 -493 61 -61 119 -85 210 -85 91
0 149 24 210 85 61 61 85 119 85 210 0 91 -24 149 -85 210 -80 80 -203 109
-305 73z m200 -116 c20 -14 49 -42 63 -64 22 -31 27 -49 27 -103 0 -75 -26
-123 -92 -168 -31 -22 -49 -27 -103 -27 -54 0 -72 5 -103 27 -66 45 -92 93
-92 168 0 54 5 72 27 103 27 40 78 80 113 90 42 12 124 -1 160 -26z"/>
<path d="M1105 1483 c-211 -76 -272 -336 -115 -493 61 -61 119 -85 210 -85 91
0 149 24 210 85 61 61 85 119 85 210 0 91 -24 149 -85 210 -80 80 -203 109
-305 73z m200 -116 c20 -14 49 -42 63 -64 22 -31 27 -49 27 -103 0 -75 -26
-123 -92 -168 -31 -22 -49 -27 -103 -27 -54 0 -72 5 -103 27 -66 45 -92 93
-92 168 0 54 5 72 27 103 27 40 78 80 113 90 42 12 124 -1 160 -26z"/>
<path d="M1105 783 c-211 -76 -272 -336 -115 -493 61 -61 119 -85 210 -85 91
0 149 24 210 85 61 61 85 119 85 210 0 91 -24 149 -85 210 -80 80 -203 109
-305 73z m200 -116 c20 -14 49 -42 63 -64 22 -31 27 -49 27 -103 0 -75 -26
-123 -92 -168 -31 -22 -49 -27 -103 -27 -75 0 -123 26 -168 92 -22 31 -27 49
-27 103 0 54 5 72 27 103 27 40 78 80 113 90 42 12 124 -1 160 -26z"/>
</g>
</svg>
